# xmcd CD database file
#
# Track frame offsets:
#	150
#	21895
#	42565
#	64807
#	81300
#	109442
#	129317
#	147767
#	169315
#	175162
#	187030
#
# Disc length: 2855 seconds
#
# Revision: 0
# Processed by: cddbd v1.4PL0 Copyright (c) Steve Scherf et al.
# Submitted via: CDex 1.40Release
#
DISCID=a00b250b
DTITLE=The Bluebirds - God I'm Blue
DYEAR=1998
DGENRE=Blues
TTITLE0=Blues Music
TTITLE1=If You Should Lose Me
TTITLE2=Sleavolution
TTITLE3=Floating On Air
TTITLE4=This Masquerade
TTITLE5=Walk Away
TTITLE6=That's Why I Love You
TTITLE7=Love Is The Only Thing
TTITLE8=Twango
TTITLE9=Heaven Help Us All
TTITLE10=Close Down
EXTD=YEAR: 1998 ID3G: 0
EXTT0=
EXTT1=
EXTT2=
EXTT3=
EXTT4=
EXTT5=
EXTT6=
EXTT7=
EXTT8=
EXTT9=
EXTT10=
PLAYORDER=
